<?xml version="1.0" standalone="no"?>
<!DOCTYPE svg PUBLIC "-//W3C//DTD SVG 20010904//EN"
 "http://www.w3.org/TR/2001/REC-SVG-20010904/DTD/svg10.dtd">
<svg version="1.0" xmlns="http://www.w3.org/2000/svg"
 width="1024.000000pt" height="1024.000000pt" viewBox="0 0 1024.000000 1024.000000"
 preserveAspectRatio="xMidYMid meet">

<g transform="translate(0.000000,1024.000000) scale(0.100000,-0.100000)"
fill="#000000" stroke="none">
<path d="M0 5120 l0 -5120 5120 0 5120 0 0 5120 0 5120 -5120 0 -5120 0 0
-5120z m3330 2799 c282 -72 521 -254 672 -512 23 -40 43 -74 44 -75 1 -2 33
29 71 68 151 161 320 271 534 351 156 57 262 73 484 73 183 0 209 -2 307 -27
278 -69 470 -177 665 -373 l101 -103 28 52 c197 379 622 614 1024 568 446 -52
796 -360 911 -801 29 -109 36 -310 15 -422 -45 -237 -147 -424 -323 -588 l-76
-71 44 -17 c229 -88 434 -226 611 -410 271 -283 447 -700 465 -1102 7 -152 -5
-213 -58 -307 -33 -58 -122 -144 -180 -174 -95 -48 -114 -49 -766 -49 l-612 0
36 -77 c125 -276 196 -591 209 -933 7 -192 -6 -275 -58 -380 -42 -83 -152
-195 -230 -232 -126 -62 11 -58 -2128 -58 -1725 0 -1963 2 -2015 15 -166 44
-302 175 -361 351 -24 73 -26 91 -25 244 0 90 5 209 11 265 25 228 94 489 182
690 22 50 42 96 45 103 4 9 -121 12 -608 12 -654 0 -663 1 -759 50 -70 36
-108 69 -155 134 -64 90 -85 163 -85 292 0 443 222 941 550 1235 118 106 238
186 397 265 84 42 155 80 158 84 3 5 -31 44 -75 86 -101 96 -154 167 -212 280
-155 301 -156 630 -3 934 152 303 429 512 762 575 107 20 290 13 403 -16z"/>
<path d="M2941 7585 c-35 -8 -107 -35 -159 -61 -82 -40 -110 -60 -188 -138
-75 -75 -99 -107 -132 -176 -53 -110 -72 -191 -72 -315 0 -167 48 -310 145
-430 146 -182 337 -278 555 -279 195 0 350 63 486 199 108 108 138 163 169
314 13 66 31 148 40 181 24 92 3 198 -66 334 -82 161 -235 292 -410 350 -104
35 -266 44 -368 21z"/>
<path d="M7025 7586 c-248 -59 -442 -226 -526 -457 -44 -120 -47 -195 -14
-364 30 -162 37 -181 83 -254 138 -220 412 -354 657 -323 178 23 316 90 435
211 87 89 140 174 177 286 34 104 38 271 9 380 -65 246 -260 444 -501 510 -84
23 -245 28 -320 11z"/>
<path d="M4920 7470 c-253 -54 -462 -181 -621 -379 -357 -444 -327 -1028 75
-1427 166 -164 357 -264 576 -300 512 -84 1004 213 1184 714 134 374 23 821
-276 1108 -127 122 -250 199 -403 251 -160 54 -374 68 -535 33z"/>
<path d="M3727 6082 c-23 -25 -22 -29 13 -47 l31 -16 -7 28 c-12 50 -18 56
-37 35z"/>
<path d="M6485 6069 c-9 -38 -3 -44 27 -28 33 17 33 17 13 39 -25 27 -32 25
-40 -11z"/>
<path d="M2855 5815 c-528 -93 -947 -434 -1114 -908 -41 -116 -57 -190 -71
-321 -14 -126 -9 -164 27 -207 51 -61 30 -59 758 -59 405 0 673 4 684 10 10 5
44 42 77 82 291 362 628 610 1019 752 55 20 108 40 117 44 14 6 2 19 -60 65
-72 53 -209 186 -290 280 -61 71 -356 197 -584 248 -121 28 -441 35 -563 14z"/>
<path d="M6905 5819 c-163 -24 -375 -96 -544 -183 -75 -38 -95 -55 -180 -151
-53 -60 -138 -144 -188 -187 -107 -90 -109 -84 32 -134 107 -38 320 -146 429
-219 212 -140 412 -322 566 -518 l84 -107 683 0 c748 0 724 -2 776 59 25 31
27 38 27 133 0 114 -26 258 -69 382 -136 393 -434 695 -831 845 -176 66 -274
83 -515 86 -115 2 -237 0 -270 -6z"/>
<path d="M4915 4983 c-433 -53 -787 -199 -1110 -460 -386 -311 -643 -746 -736
-1247 -26 -141 -37 -415 -19 -471 18 -56 86 -119 142 -133 35 -9 530 -12 1941
-12 2090 0 1945 -4 2014 62 57 56 67 97 60 271 -16 427 -154 819 -408 1160
-342 459 -830 747 -1389 823 -95 12 -414 17 -495 7z"/>
</g>
</svg>
